<mxfile host="app.diagrams.net" modified="2023-05-21T06:58:50.542Z" agent="Mozilla/5.0 (Windows NT 10.0; Win64; x64) AppleWebKit/537.36 (KHTML, like Gecko) Chrome/113.0.0.0 Safari/537.36" etag="DGjDC8KifyJxHCgK9-u6" version="21.3.2" type="github">
  <diagram name="Page-1" id="ykXjOiRDVIfzbeVSd98I">
    <mxGraphModel dx="838" dy="461" grid="1" gridSize="10" guides="1" tooltips="1" connect="1" arrows="1" fold="1" page="1" pageScale="1" pageWidth="850" pageHeight="1100" math="0" shadow="0">
      <root>
        <mxCell id="0" />
        <mxCell id="1" parent="0" />
        <mxCell id="uJOoqWfhr_5EmS4-Q381-1" value="userÂ " style="swimlane;fontStyle=0;childLayout=stackLayout;horizontal=1;startSize=26;horizontalStack=0;resizeParent=1;resizeParentMax=0;resizeLast=0;collapsible=1;marginBottom=0;align=center;fontSize=14;" vertex="1" parent="1">
          <mxGeometry y="60" width="100" height="146" as="geometry" />
        </mxCell>
        <mxCell id="uJOoqWfhr_5EmS4-Q381-2" value="id" style="text;strokeColor=none;fillColor=none;spacingLeft=4;spacingRight=4;overflow=hidden;rotatable=0;points=[[0,0.5],[1,0.5]];portConstraint=eastwest;fontSize=12;whiteSpace=wrap;html=1;" vertex="1" parent="uJOoqWfhr_5EmS4-Q381-1">
          <mxGeometry y="26" width="100" height="30" as="geometry" />
        </mxCell>
        <mxCell id="uJOoqWfhr_5EmS4-Q381-3" value="email" style="text;strokeColor=none;fillColor=none;spacingLeft=4;spacingRight=4;overflow=hidden;rotatable=0;points=[[0,0.5],[1,0.5]];portConstraint=eastwest;fontSize=12;whiteSpace=wrap;html=1;" vertex="1" parent="uJOoqWfhr_5EmS4-Q381-1">
          <mxGeometry y="56" width="100" height="30" as="geometry" />
        </mxCell>
        <mxCell id="uJOoqWfhr_5EmS4-Q381-4" value="password" style="text;strokeColor=none;fillColor=none;spacingLeft=4;spacingRight=4;overflow=hidden;rotatable=0;points=[[0,0.5],[1,0.5]];portConstraint=eastwest;fontSize=12;whiteSpace=wrap;html=1;" vertex="1" parent="uJOoqWfhr_5EmS4-Q381-1">
          <mxGeometry y="86" width="100" height="30" as="geometry" />
        </mxCell>
        <mxCell id="uJOoqWfhr_5EmS4-Q381-5" value="roles" style="text;strokeColor=none;fillColor=none;spacingLeft=4;spacingRight=4;overflow=hidden;rotatable=0;points=[[0,0.5],[1,0.5]];portConstraint=eastwest;fontSize=12;whiteSpace=wrap;html=1;" vertex="1" parent="uJOoqWfhr_5EmS4-Q381-1">
          <mxGeometry y="116" width="100" height="30" as="geometry" />
        </mxCell>
        <mxCell id="uJOoqWfhr_5EmS4-Q381-7" value="basket" style="swimlane;fontStyle=0;childLayout=stackLayout;horizontal=1;startSize=26;horizontalStack=0;resizeParent=1;resizeParentMax=0;resizeLast=0;collapsible=1;marginBottom=0;align=center;fontSize=14;" vertex="1" parent="1">
          <mxGeometry x="130" y="60" width="80" height="86" as="geometry" />
        </mxCell>
        <mxCell id="uJOoqWfhr_5EmS4-Q381-8" value="id" style="text;strokeColor=none;fillColor=none;spacingLeft=4;spacingRight=4;overflow=hidden;rotatable=0;points=[[0,0.5],[1,0.5]];portConstraint=eastwest;fontSize=12;whiteSpace=wrap;html=1;" vertex="1" parent="uJOoqWfhr_5EmS4-Q381-7">
          <mxGeometry y="26" width="80" height="30" as="geometry" />
        </mxCell>
        <mxCell id="uJOoqWfhr_5EmS4-Q381-9" value="user_id" style="text;strokeColor=none;fillColor=none;spacingLeft=4;spacingRight=4;overflow=hidden;rotatable=0;points=[[0,0.5],[1,0.5]];portConstraint=eastwest;fontSize=12;whiteSpace=wrap;html=1;" vertex="1" parent="uJOoqWfhr_5EmS4-Q381-7">
          <mxGeometry y="56" width="80" height="30" as="geometry" />
        </mxCell>
        <mxCell id="uJOoqWfhr_5EmS4-Q381-12" value="" style="edgeStyle=entityRelationEdgeStyle;fontSize=12;html=1;endArrow=ERmandOne;startArrow=ERmandOne;rounded=0;exitX=1;exitY=0.103;exitDx=0;exitDy=0;exitPerimeter=0;entryX=0.006;entryY=0.174;entryDx=0;entryDy=0;entryPerimeter=0;" edge="1" parent="1" source="uJOoqWfhr_5EmS4-Q381-1" target="uJOoqWfhr_5EmS4-Q381-7">
          <mxGeometry width="100" height="100" relative="1" as="geometry">
            <mxPoint x="190" y="186" as="sourcePoint" />
            <mxPoint x="290" y="86" as="targetPoint" />
          </mxGeometry>
        </mxCell>
        <mxCell id="uJOoqWfhr_5EmS4-Q381-13" value="device" style="swimlane;fontStyle=0;childLayout=stackLayout;horizontal=1;startSize=26;horizontalStack=0;resizeParent=1;resizeParentMax=0;resizeLast=0;collapsible=1;marginBottom=0;align=center;fontSize=14;" vertex="1" parent="1">
          <mxGeometry x="580" y="60" width="160" height="236" as="geometry" />
        </mxCell>
        <mxCell id="uJOoqWfhr_5EmS4-Q381-14" value="id" style="text;strokeColor=none;fillColor=none;spacingLeft=4;spacingRight=4;overflow=hidden;rotatable=0;points=[[0,0.5],[1,0.5]];portConstraint=eastwest;fontSize=12;whiteSpace=wrap;html=1;" vertex="1" parent="uJOoqWfhr_5EmS4-Q381-13">
          <mxGeometry y="26" width="160" height="30" as="geometry" />
        </mxCell>
        <mxCell id="uJOoqWfhr_5EmS4-Q381-15" value="name" style="text;strokeColor=none;fillColor=none;spacingLeft=4;spacingRight=4;overflow=hidden;rotatable=0;points=[[0,0.5],[1,0.5]];portConstraint=eastwest;fontSize=12;whiteSpace=wrap;html=1;" vertex="1" parent="uJOoqWfhr_5EmS4-Q381-13">
          <mxGeometry y="56" width="160" height="30" as="geometry" />
        </mxCell>
        <mxCell id="uJOoqWfhr_5EmS4-Q381-16" value="price" style="text;strokeColor=none;fillColor=none;spacingLeft=4;spacingRight=4;overflow=hidden;rotatable=0;points=[[0,0.5],[1,0.5]];portConstraint=eastwest;fontSize=12;whiteSpace=wrap;html=1;" vertex="1" parent="uJOoqWfhr_5EmS4-Q381-13">
          <mxGeometry y="86" width="160" height="30" as="geometry" />
        </mxCell>
        <mxCell id="uJOoqWfhr_5EmS4-Q381-17" value="rating" style="text;strokeColor=none;fillColor=none;spacingLeft=4;spacingRight=4;overflow=hidden;rotatable=0;points=[[0,0.5],[1,0.5]];portConstraint=eastwest;fontSize=12;whiteSpace=wrap;html=1;" vertex="1" parent="uJOoqWfhr_5EmS4-Q381-13">
          <mxGeometry y="116" width="160" height="30" as="geometry" />
        </mxCell>
        <mxCell id="uJOoqWfhr_5EmS4-Q381-18" value="img" style="text;strokeColor=none;fillColor=none;spacingLeft=4;spacingRight=4;overflow=hidden;rotatable=0;points=[[0,0.5],[1,0.5]];portConstraint=eastwest;fontSize=12;whiteSpace=wrap;html=1;" vertex="1" parent="uJOoqWfhr_5EmS4-Q381-13">
          <mxGeometry y="146" width="160" height="30" as="geometry" />
        </mxCell>
        <mxCell id="uJOoqWfhr_5EmS4-Q381-19" value="typeId" style="text;strokeColor=none;fillColor=none;spacingLeft=4;spacingRight=4;overflow=hidden;rotatable=0;points=[[0,0.5],[1,0.5]];portConstraint=eastwest;fontSize=12;whiteSpace=wrap;html=1;" vertex="1" parent="uJOoqWfhr_5EmS4-Q381-13">
          <mxGeometry y="176" width="160" height="30" as="geometry" />
        </mxCell>
        <mxCell id="uJOoqWfhr_5EmS4-Q381-20" value="brandId" style="text;strokeColor=none;fillColor=none;spacingLeft=4;spacingRight=4;overflow=hidden;rotatable=0;points=[[0,0.5],[1,0.5]];portConstraint=eastwest;fontSize=12;whiteSpace=wrap;html=1;" vertex="1" parent="uJOoqWfhr_5EmS4-Q381-13">
          <mxGeometry y="206" width="160" height="30" as="geometry" />
        </mxCell>
        <mxCell id="uJOoqWfhr_5EmS4-Q381-21" value="brand" style="swimlane;fontStyle=0;childLayout=stackLayout;horizontal=1;startSize=26;horizontalStack=0;resizeParent=1;resizeParentMax=0;resizeLast=0;collapsible=1;marginBottom=0;align=center;fontSize=14;" vertex="1" parent="1">
          <mxGeometry x="580" y="350" width="160" height="86" as="geometry" />
        </mxCell>
        <mxCell id="uJOoqWfhr_5EmS4-Q381-22" value="id" style="text;strokeColor=none;fillColor=none;spacingLeft=4;spacingRight=4;overflow=hidden;rotatable=0;points=[[0,0.5],[1,0.5]];portConstraint=eastwest;fontSize=12;whiteSpace=wrap;html=1;" vertex="1" parent="uJOoqWfhr_5EmS4-Q381-21">
          <mxGeometry y="26" width="160" height="30" as="geometry" />
        </mxCell>
        <mxCell id="uJOoqWfhr_5EmS4-Q381-23" value="name" style="text;strokeColor=none;fillColor=none;spacingLeft=4;spacingRight=4;overflow=hidden;rotatable=0;points=[[0,0.5],[1,0.5]];portConstraint=eastwest;fontSize=12;whiteSpace=wrap;html=1;" vertex="1" parent="uJOoqWfhr_5EmS4-Q381-21">
          <mxGeometry y="56" width="160" height="30" as="geometry" />
        </mxCell>
        <mxCell id="uJOoqWfhr_5EmS4-Q381-38" value="type" style="swimlane;fontStyle=0;childLayout=stackLayout;horizontal=1;startSize=26;horizontalStack=0;resizeParent=1;resizeParentMax=0;resizeLast=0;collapsible=1;marginBottom=0;align=center;fontSize=14;" vertex="1" parent="1">
          <mxGeometry x="345" y="350" width="160" height="86" as="geometry" />
        </mxCell>
        <mxCell id="uJOoqWfhr_5EmS4-Q381-39" value="id" style="text;strokeColor=none;fillColor=none;spacingLeft=4;spacingRight=4;overflow=hidden;rotatable=0;points=[[0,0.5],[1,0.5]];portConstraint=eastwest;fontSize=12;whiteSpace=wrap;html=1;" vertex="1" parent="uJOoqWfhr_5EmS4-Q381-38">
          <mxGeometry y="26" width="160" height="30" as="geometry" />
        </mxCell>
        <mxCell id="uJOoqWfhr_5EmS4-Q381-40" value="name" style="text;strokeColor=none;fillColor=none;spacingLeft=4;spacingRight=4;overflow=hidden;rotatable=0;points=[[0,0.5],[1,0.5]];portConstraint=eastwest;fontSize=12;whiteSpace=wrap;html=1;" vertex="1" parent="uJOoqWfhr_5EmS4-Q381-38">
          <mxGeometry y="56" width="160" height="30" as="geometry" />
        </mxCell>
        <mxCell id="uJOoqWfhr_5EmS4-Q381-44" value="" style="fontSize=12;html=1;endArrow=ERoneToMany;rounded=0;entryX=0;entryY=0.5;entryDx=0;entryDy=0;exitX=0.5;exitY=0;exitDx=0;exitDy=0;" edge="1" parent="1" source="uJOoqWfhr_5EmS4-Q381-38" target="uJOoqWfhr_5EmS4-Q381-19">
          <mxGeometry width="100" height="100" relative="1" as="geometry">
            <mxPoint x="470" y="350" as="sourcePoint" />
            <mxPoint x="570" y="250" as="targetPoint" />
          </mxGeometry>
        </mxCell>
        <mxCell id="uJOoqWfhr_5EmS4-Q381-45" value="" style="fontSize=12;html=1;endArrow=ERoneToMany;rounded=0;entryX=0.51;entryY=1.1;entryDx=0;entryDy=0;entryPerimeter=0;exitX=0.5;exitY=0;exitDx=0;exitDy=0;" edge="1" parent="1" source="uJOoqWfhr_5EmS4-Q381-21" target="uJOoqWfhr_5EmS4-Q381-20">
          <mxGeometry width="100" height="100" relative="1" as="geometry">
            <mxPoint x="740" y="420" as="sourcePoint" />
            <mxPoint x="840" y="320" as="targetPoint" />
          </mxGeometry>
        </mxCell>
        <mxCell id="uJOoqWfhr_5EmS4-Q381-46" value="" style="edgeStyle=entityRelationEdgeStyle;fontSize=12;html=1;endArrow=ERmany;startArrow=ERmany;rounded=0;entryX=-0.022;entryY=0.938;entryDx=0;entryDy=0;entryPerimeter=0;exitX=1.004;exitY=-0.062;exitDx=0;exitDy=0;exitPerimeter=0;" edge="1" parent="1" source="uJOoqWfhr_5EmS4-Q381-40" target="uJOoqWfhr_5EmS4-Q381-22">
          <mxGeometry width="100" height="100" relative="1" as="geometry">
            <mxPoint x="470" y="410" as="sourcePoint" />
            <mxPoint x="570" y="310" as="targetPoint" />
          </mxGeometry>
        </mxCell>
        <mxCell id="uJOoqWfhr_5EmS4-Q381-47" value="device_info" style="swimlane;fontStyle=0;childLayout=stackLayout;horizontal=1;startSize=26;horizontalStack=0;resizeParent=1;resizeParentMax=0;resizeLast=0;collapsible=1;marginBottom=0;align=center;fontSize=14;" vertex="1" parent="1">
          <mxGeometry x="820" y="60" width="160" height="146" as="geometry" />
        </mxCell>
        <mxCell id="uJOoqWfhr_5EmS4-Q381-48" value="id" style="text;strokeColor=none;fillColor=none;spacingLeft=4;spacingRight=4;overflow=hidden;rotatable=0;points=[[0,0.5],[1,0.5]];portConstraint=eastwest;fontSize=12;whiteSpace=wrap;html=1;" vertex="1" parent="uJOoqWfhr_5EmS4-Q381-47">
          <mxGeometry y="26" width="160" height="30" as="geometry" />
        </mxCell>
        <mxCell id="uJOoqWfhr_5EmS4-Q381-49" value="device_id" style="text;strokeColor=none;fillColor=none;spacingLeft=4;spacingRight=4;overflow=hidden;rotatable=0;points=[[0,0.5],[1,0.5]];portConstraint=eastwest;fontSize=12;whiteSpace=wrap;html=1;" vertex="1" parent="uJOoqWfhr_5EmS4-Q381-47">
          <mxGeometry y="56" width="160" height="30" as="geometry" />
        </mxCell>
        <mxCell id="uJOoqWfhr_5EmS4-Q381-50" value="title" style="text;strokeColor=none;fillColor=none;spacingLeft=4;spacingRight=4;overflow=hidden;rotatable=0;points=[[0,0.5],[1,0.5]];portConstraint=eastwest;fontSize=12;whiteSpace=wrap;html=1;" vertex="1" parent="uJOoqWfhr_5EmS4-Q381-47">
          <mxGeometry y="86" width="160" height="30" as="geometry" />
        </mxCell>
        <mxCell id="uJOoqWfhr_5EmS4-Q381-51" value="description" style="text;strokeColor=none;fillColor=none;spacingLeft=4;spacingRight=4;overflow=hidden;rotatable=0;points=[[0,0.5],[1,0.5]];portConstraint=eastwest;fontSize=12;whiteSpace=wrap;html=1;" vertex="1" parent="uJOoqWfhr_5EmS4-Q381-47">
          <mxGeometry y="116" width="160" height="30" as="geometry" />
        </mxCell>
        <mxCell id="uJOoqWfhr_5EmS4-Q381-52" value="" style="edgeStyle=entityRelationEdgeStyle;fontSize=12;html=1;endArrow=ERoneToMany;rounded=0;exitX=1.028;exitY=0.033;exitDx=0;exitDy=0;exitPerimeter=0;entryX=0.013;entryY=0.061;entryDx=0;entryDy=0;entryPerimeter=0;" edge="1" parent="1" source="uJOoqWfhr_5EmS4-Q381-16" target="uJOoqWfhr_5EmS4-Q381-50">
          <mxGeometry width="100" height="100" relative="1" as="geometry">
            <mxPoint x="680" y="170" as="sourcePoint" />
            <mxPoint x="780" y="70" as="targetPoint" />
          </mxGeometry>
        </mxCell>
        <mxCell id="uJOoqWfhr_5EmS4-Q381-53" value="basket_device" style="swimlane;fontStyle=0;childLayout=stackLayout;horizontal=1;startSize=26;horizontalStack=0;resizeParent=1;resizeParentMax=0;resizeLast=0;collapsible=1;marginBottom=0;align=center;fontSize=14;" vertex="1" parent="1">
          <mxGeometry x="290" y="60" width="160" height="116" as="geometry" />
        </mxCell>
        <mxCell id="uJOoqWfhr_5EmS4-Q381-54" value="id" style="text;strokeColor=none;fillColor=none;spacingLeft=4;spacingRight=4;overflow=hidden;rotatable=0;points=[[0,0.5],[1,0.5]];portConstraint=eastwest;fontSize=12;whiteSpace=wrap;html=1;" vertex="1" parent="uJOoqWfhr_5EmS4-Q381-53">
          <mxGeometry y="26" width="160" height="30" as="geometry" />
        </mxCell>
        <mxCell id="uJOoqWfhr_5EmS4-Q381-55" value="device_id" style="text;strokeColor=none;fillColor=none;spacingLeft=4;spacingRight=4;overflow=hidden;rotatable=0;points=[[0,0.5],[1,0.5]];portConstraint=eastwest;fontSize=12;whiteSpace=wrap;html=1;" vertex="1" parent="uJOoqWfhr_5EmS4-Q381-53">
          <mxGeometry y="56" width="160" height="30" as="geometry" />
        </mxCell>
        <mxCell id="uJOoqWfhr_5EmS4-Q381-56" value="basket_id" style="text;strokeColor=none;fillColor=none;spacingLeft=4;spacingRight=4;overflow=hidden;rotatable=0;points=[[0,0.5],[1,0.5]];portConstraint=eastwest;fontSize=12;whiteSpace=wrap;html=1;" vertex="1" parent="uJOoqWfhr_5EmS4-Q381-53">
          <mxGeometry y="86" width="160" height="30" as="geometry" />
        </mxCell>
        <mxCell id="uJOoqWfhr_5EmS4-Q381-57" value="" style="edgeStyle=entityRelationEdgeStyle;fontSize=12;html=1;endArrow=ERoneToMany;rounded=0;exitX=1.012;exitY=0.134;exitDx=0;exitDy=0;exitPerimeter=0;entryX=-0.007;entryY=0.099;entryDx=0;entryDy=0;entryPerimeter=0;" edge="1" parent="1" source="uJOoqWfhr_5EmS4-Q381-7" target="uJOoqWfhr_5EmS4-Q381-53">
          <mxGeometry width="100" height="100" relative="1" as="geometry">
            <mxPoint x="220" y="70" as="sourcePoint" />
            <mxPoint x="440" y="120" as="targetPoint" />
          </mxGeometry>
        </mxCell>
        <mxCell id="uJOoqWfhr_5EmS4-Q381-58" value="" style="edgeStyle=entityRelationEdgeStyle;fontSize=12;html=1;endArrow=ERmandOne;startArrow=ERmandOne;rounded=0;exitX=1.006;exitY=0.117;exitDx=0;exitDy=0;exitPerimeter=0;entryX=-0.005;entryY=0.04;entryDx=0;entryDy=0;entryPerimeter=0;" edge="1" parent="1" source="uJOoqWfhr_5EmS4-Q381-53" target="uJOoqWfhr_5EmS4-Q381-13">
          <mxGeometry width="100" height="100" relative="1" as="geometry">
            <mxPoint x="340" y="220" as="sourcePoint" />
            <mxPoint x="440" y="120" as="targetPoint" />
          </mxGeometry>
        </mxCell>
        <mxCell id="uJOoqWfhr_5EmS4-Q381-59" value="rating" style="swimlane;fontStyle=0;childLayout=stackLayout;horizontal=1;startSize=26;horizontalStack=0;resizeParent=1;resizeParentMax=0;resizeLast=0;collapsible=1;marginBottom=0;align=center;fontSize=14;" vertex="1" parent="1">
          <mxGeometry x="110" y="296" width="160" height="146" as="geometry" />
        </mxCell>
        <mxCell id="uJOoqWfhr_5EmS4-Q381-60" value="id" style="text;strokeColor=none;fillColor=none;spacingLeft=4;spacingRight=4;overflow=hidden;rotatable=0;points=[[0,0.5],[1,0.5]];portConstraint=eastwest;fontSize=12;whiteSpace=wrap;html=1;" vertex="1" parent="uJOoqWfhr_5EmS4-Q381-59">
          <mxGeometry y="26" width="160" height="30" as="geometry" />
        </mxCell>
        <mxCell id="uJOoqWfhr_5EmS4-Q381-61" value="user_id" style="text;strokeColor=none;fillColor=none;spacingLeft=4;spacingRight=4;overflow=hidden;rotatable=0;points=[[0,0.5],[1,0.5]];portConstraint=eastwest;fontSize=12;whiteSpace=wrap;html=1;" vertex="1" parent="uJOoqWfhr_5EmS4-Q381-59">
          <mxGeometry y="56" width="160" height="30" as="geometry" />
        </mxCell>
        <mxCell id="uJOoqWfhr_5EmS4-Q381-62" value="device_id" style="text;strokeColor=none;fillColor=none;spacingLeft=4;spacingRight=4;overflow=hidden;rotatable=0;points=[[0,0.5],[1,0.5]];portConstraint=eastwest;fontSize=12;whiteSpace=wrap;html=1;" vertex="1" parent="uJOoqWfhr_5EmS4-Q381-59">
          <mxGeometry y="86" width="160" height="30" as="geometry" />
        </mxCell>
        <mxCell id="uJOoqWfhr_5EmS4-Q381-63" value="rate" style="text;strokeColor=none;fillColor=none;spacingLeft=4;spacingRight=4;overflow=hidden;rotatable=0;points=[[0,0.5],[1,0.5]];portConstraint=eastwest;fontSize=12;whiteSpace=wrap;html=1;" vertex="1" parent="uJOoqWfhr_5EmS4-Q381-59">
          <mxGeometry y="116" width="160" height="30" as="geometry" />
        </mxCell>
        <mxCell id="uJOoqWfhr_5EmS4-Q381-64" value="" style="fontSize=12;html=1;endArrow=ERoneToMany;rounded=0;elbow=vertical;exitX=0.42;exitY=1.116;exitDx=0;exitDy=0;exitPerimeter=0;" edge="1" parent="1" source="uJOoqWfhr_5EmS4-Q381-5" target="uJOoqWfhr_5EmS4-Q381-59">
          <mxGeometry width="100" height="100" relative="1" as="geometry">
            <mxPoint x="120" y="230" as="sourcePoint" />
            <mxPoint x="150" y="290" as="targetPoint" />
          </mxGeometry>
        </mxCell>
        <mxCell id="uJOoqWfhr_5EmS4-Q381-65" value="" style="edgeStyle=entityRelationEdgeStyle;fontSize=12;html=1;endArrow=ERoneToMany;rounded=0;exitX=0;exitY=0.5;exitDx=0;exitDy=0;entryX=1;entryY=0.5;entryDx=0;entryDy=0;" edge="1" parent="1" source="uJOoqWfhr_5EmS4-Q381-17" target="uJOoqWfhr_5EmS4-Q381-60">
          <mxGeometry width="100" height="100" relative="1" as="geometry">
            <mxPoint x="250" y="300" as="sourcePoint" />
            <mxPoint x="360" y="270" as="targetPoint" />
          </mxGeometry>
        </mxCell>
      </root>
    </mxGraphModel>
  </diagram>
</mxfile>
